<svg height="512" viewBox="0 0 128 128" width="512" xmlns="http://www.w3.org/2000/svg"><g><path d="m64 41-30.753 11.92 30.753 11.921 30.753-11.921z" fill="#fec12d"/><path d="m33.247 52.92v37.728l30.753 11.92v-37.727z" fill="#fd9a27"/><path d="m64 102.568v-37.727l30.753-11.921v37.728z" fill="#fd6533"/><path d="m75.079 60.717v12.904l5.688-6.038 3.689 2.403v-12.904z" fill="#fed3ca"/><path d="m75.079 60.717-30.849-12.054 9.145-3.545 31.081 11.964z" fill="#ffe6de"/><circle cx="64" cy="39.712" fill="#2afd6f" r="14.28"/><path d="m62.013 45.276a1.742 1.742 0 0 1 -1.13-.414l-4.513-3.814a1.75 1.75 0 0 1 2.26-2.673l3.348 2.83 7.352-6.605a1.75 1.75 0 1 1 2.34 2.6l-8.487 7.628a1.749 1.749 0 0 1 -1.17.448z" fill="#fff"/></g></svg>