<svg id="Capa_1" enable-background="new 0 0 512 512" height="512" viewBox="0 0 512 512" width="512" xmlns="http://www.w3.org/2000/svg"><g><g><path d="m257.002 250c-3.708.001-7.354-1.375-10.173-3.976-4.163-3.841-5.808-9.699-4.252-15.146l12.28-42.979c-21.262-20.524-32.857-46.089-32.857-72.899 0-31.474 15.602-60.809 43.931-82.6 27.161-20.893 63.055-32.4 101.069-32.4s73.908 11.507 101.069 32.4c28.329 21.791 43.931 51.126 43.931 82.6s-15.602 60.809-43.931 82.6c-27.161 20.893-63.055 32.4-101.069 32.4-13.847 0-27.681-1.607-41.195-4.782l-63.538 23.827c-1.713.643-3.496.955-5.265.955z" fill="#f5f5ff"/><path d="m468.069 197.6c28.329-21.791 43.931-51.126 43.931-82.6s-15.602-60.809-43.931-82.6c-27.161-20.893-63.055-32.4-101.069-32.4v230c38.014 0 73.908-11.507 101.069-32.4z" fill="#e2e7fa"/><path d="m417 100h-100c-8.284 0-15-6.716-15-15s6.716-15 15-15h100c8.284 0 15 6.716 15 15s-6.716 15-15 15z" fill="#6b61b1"/><path d="m417 160h-100c-8.284 0-15-6.716-15-15s6.716-15 15-15h100c8.284 0 15 6.716 15 15s-6.716 15-15 15z" fill="#6b61b1"/><g fill="#453d81"><path d="m432 85c0-8.284-6.716-15-15-15h-50v30h50c8.284 0 15-6.716 15-15z"/><path d="m432 145c0-8.284-6.716-15-15-15h-50v30h50c8.284 0 15-6.716 15-15z"/></g></g><g><path d="m255.202 512c-32.859.001-64.855-17.037-82.433-47.481l-160-277.128c-12.688-21.976-16.059-47.578-9.491-72.088 6.568-24.511 22.288-44.997 44.264-57.685l34.641-20c8.097-4.675 17.53-5.917 26.559-3.496 9.031 2.42 16.578 8.212 21.253 16.309l49.999 86.602v-.001c4.675 8.097 5.917 17.528 3.497 26.56-2.42 9.029-8.211 16.577-16.308 21.252l-21.65 12.5 85 147.225 21.65-12.5c8.098-4.676 17.53-5.917 26.559-3.497 9.031 2.42 16.578 8.211 21.253 16.309l49.999 86.602c4.675 8.096 5.917 17.527 3.497 26.559-2.42 9.03-8.211 16.578-16.309 21.253l-34.64 19.999c-14.921 8.612-31.236 12.706-47.34 12.706z" fill="#6ba7ff"/><path d="m349.993 431.48-49.999-86.602c-4.675-8.098-12.222-13.889-21.253-16.309-9.028-2.42-18.461-1.179-26.559 3.497l-21.65 12.5-44.509-77.092-95.263 55 82.009 142.043c17.577 30.444 49.573 47.482 82.433 47.481 16.105 0 32.419-4.094 47.34-12.709l34.64-19.999c8.098-4.675 13.889-12.223 16.309-21.253 2.419-9.029 1.176-18.461-3.498-26.557z" fill="#347adf"/></g></g></svg>